<?xml version="1.0" encoding="UTF-8"?>
<svg id="Layer_2" data-name="Layer 2" xmlns="http://www.w3.org/2000/svg" viewBox="0 0 2411.41 573.07">
  <defs>
    <style>
      .cls-1 {
        fill: none;
        stroke: #704426;
        stroke-linecap: round;
        stroke-linejoin: round;
        stroke-width: 25px;
      }

      .cls-1, .cls-2, .cls-3 {
        font-family: Helvetica-Bold, Helvetica;
        font-size: 144px;
        font-weight: 700;
      }

      .cls-4 {
        fill: #fcf7f4;
      }

      .cls-5, .cls-3 {
        fill: #c77c4d;
      }

      .cls-2, .cls-6 {
        fill: #704426;
      }

      .cls-7 {
        letter-spacing: -.07em;
      }

      .cls-8 {
        fill: #fcf7f4;
      }
    </style>
  </defs>
  <g id="Layer_1-2" data-name="Layer 1">
    <g>
      <path class="cls-4" d="M14.46,379.4c8.87,8.05,24.18,47.46,33.98,54.72,38.75,28.71,71.22,26.24,114.94,37.46,31.6,8.1,61.51,22.47,93.94,27.72,53.47,8.66,130.9,1.17,156.75-53.85,8.14-17.33,6.82-34.72,13.63-51.68,11.26-28.06,25.9-29.97,48.06-45.42,2.65-1.85,6.06-6.5,9.91-9.3,4.35-3.17,11.37-7.31,16.53-8.44v30.09c0,10.18-18.53,29.99-26.24,36.56-11.39,9.71-17.6,12.5-27.3,26.44-16.7,24.01-13.83,54.04-34.04,78.03-40.94,48.59-129.99,49.86-186.47,33.14-23.87-7.07-45.2-19.1-67.88-25.61-51.71-14.83-99.95-5.93-130.37-59.16-2.52-4.4-18.8-24.95-21.78-28.86l6.33-41.83Z"/>
      <path class="cls-8" d="M298.55,178.28l-1.39,16.45c-20.27,2.27-39,6.33-56.6,17.03s-30.79,32.78-47.96,45.81c-36.43,27.64-131.86,50.2-110.49,113.43,3.48,10.31,17.88,25.92,27.34,31.57,16.92,10.11,38.21,10.53,57,14.71,53.29,11.85,80.29,27.78,139.23,24.79,4.62-.23,19.48-3.74,21.76-3.42,1.68.24,4.1,4.78,7.91,5.65,8.18,1.88,14.66-.14,19.57-6.78,7.88-10.63.68-18.31,3.73-25.67,1-2.41,8.07-9.55,10.59-13.8,7.08-11.95,9.17-24.72,14.92-36.3,14.4-28.98,62.55-36.29,66.68-71.63,7.2-61.7-58.86-87.77-109.37-93.97-5.9-.72-18.2-.17-22.86-1.48-.82-.23-1.62-.81-1.77-1.68l.95-14.79c38.66,1.57,81.75,4.51,118.14,18.26,64.55,24.4,98.2,94.32,28.83,136.69-15.83,9.67-34.33,19.12-45.79,35.25-16.57,23.32-10.97,42.86-20.67,66.39-17.61,42.72-84.22,50.55-124.54,46.79-40.72-3.8-75.16-23.28-113.7-32.29-25.66-6-49.76-4.5-74.5-15.14-40.89-17.6-81.4-62.24-47.46-106,32.32-41.67,88.87-60.3,130.88-89.33,16.88-11.67,31.42-28.74,48.47-41.23,15.66-11.47,35.61-14.98,54.91-18.09,6.88-1.11,13.41-3.26,20.49-2.58,1.99.19,3.82.85,5.72,1.35Z"/>
      <path class="cls-4" d="M297.3,214.07v20.49c-9.99.45-20.24,3.82-28.62,9.16-14.18,9.03-15.21,15.81-24.62,27.92-9.46,12.18-19.06,19.31-32.97,25.9-16.85,8-37.84,11.55-50.79,27.33-8.99,10.97-11.92,29.28-.87,39.87,10.25,9.82,48.45,17.35,63.58,20.3,23.22,4.53,56.58,8.69,78.2-2.5,16.02-8.29,27.9-29.33,39.64-42.32,16.31-18.06,63.65-50.94,40.24-78.68-4.85-5.75-13.28-12.4-20.18-15.68-13.98-6.64-27.79-8.9-43.12-10.03v-21.77c32.32,1.97,60.76,7.81,88.25,25.08,9.68,6.08,15.13,8.54,20.85,18.85,9.46,17.05,7.68,30.76-2.06,47.11-20.67,15.19-49.38,28.47-59.35,53.34-5.05,12.59-6.72,29.44-17.09,39.25-7.38,6.98-8.56,2.41-17.18,3.32-4.95.52-10.74,4.28-13.23,8.54-1.89,3.24-1.87,8.86-4.92,10.44-2.56,1.33-17.61,2.76-21.46,2.87-37.21,1.1-63.27-8.91-97.36-19.3-22.27-6.78-47.36-7.09-67.57-14.39-26.31-9.51-38.76-38.31-17.61-60.49,22.92-24.03,66.06-37.22,93.11-56.71,24.09-17.36,41.41-45.5,71.8-53.7,7.73-2.09,15.5-2.77,23.33-4.21Z"/>
      <path class="cls-4" d="M317.79,255.05c16.06,1.83,52.47,7.47,48.36,29.8-1.7,9.23-7.55,12.54-12.54,18.18-11.96,13.5-24.86,26.53-36.65,39.55-13.02,14.37-18.43,25.48-40.8,27.71-18.66,1.86-32.72.15-50.28-3.49-10.99-2.28-48.68-8-54.15-17.56-4.49-7.84,3.67-15.08,10.08-18.5,7.84-4.18,19.15-6.78,27.58-10.57,28.68-12.9,37.24-27.16,55.19-51.1,7.11-9.48,21.09-14.53,32.72-14.03,1.22,1.19-.05,28.32,2.72,33.77,3.76,7.38,13.58,5.85,15.91-1.68.29-.92,1.84-9.19,1.84-9.68v-22.41Z"/>
      <path class="cls-5" d="M407.43,73.22c.38,2.11-1.01,3.44-2.64,4.38-4,2.3-14.96,6.07-20.06,8.11-16.83,6.73-43.45,17.23-60.44,21.52-2.57.65-5.16.68-7.78.56l-2.55-65.31c4.79-4.6,82,27.54,93.48,30.74Z"/>
      <path class="cls-6" d="M521.35,335.14c-.62-57.63,11.05-98.51-42.5-135.57-46.43-32.13-90.15-37.45-145.01-41.89-5.58-.45-11.68.41-17.33.05-1.26.06-1.19-.83-1.32-1.85-.65-5.1-.59-18.04-.04-23.25.13-1.26-.11-2.54,1.35-3.07,15.61-6.37,31.96-10.94,47.7-16.98,19.98-7.67,40.9-18.32,59.57-25.2,7.41-2.73,16.82-.95,15.62-13.37-.76-7.91-4.71-10.35-11.07-13.47-18.31-8.99-42.24-15.32-61.56-22.8-1.63-.63-6.17-2.71-7.86-3.36-15.35-5.96-26.37-11.09-42.68-14.11-.85-.16-1.56-.73-1.88-1.53-2.24-5.63-1.25-23.88-15.22-17.33-7.77,3.64-4.31,10.16-4.33,16.05-.06,13.34,1.08,26.6,1.28,39.7.5,32.66-.44,65.38-.08,98.03.02,1.41-1.13,2.56-2.53,2.57-36.56.41-65.74,8.25-94.66,31.46-5.04,4.05-20.48,20.8-23.99,22.12-4.05,1.52-2.59-2.34-4.83-5.02-16.23-19.43-45.08-.48-32.72,23.49.6,1.17,4.99.85,1.34,5.51-3.08,3.92-28.99,15.68-35.53,19.53-19.42,11.43-51.42,35.07-67.04,50.77l-14.31,15.56c-5.94,8.08-10.21,16.47-11.17,26.66-.07.5-.43,2.07-.49,2.24l-5.59,15.92c-3.62,11.42-5.52,27.95-3.87,39.82l2.07,14.96c1.41,10.2,4.3,20.15,8.57,29.52l6.82,14.95c3.31,7.26,8,13.81,13.81,19.28,4.56,4.3,9.13,8.56,14.31,12.21,32.59,22.96,69.15,21.79,106.41,31.75,25.85,6.91,49.78,20.21,76.57,27.16,65.81,17.08,154.43,12.36,200.71-43.16,21.05-25.25,14.42-53.02,31.6-78.53,19.28-28.62,58.33-38.23,61.27-78.32.55-7.43-1.31-13.92-1.38-20.48ZM316.81,42.07c14.15,1.17,72.75,25.18,88.26,30.41,1.9.64,2.38,3.14.81,4.39-.34.27-.71.51-1.09.73-4,2.3-14.96,6.07-20.06,8.11-16.83,6.73-43.45,17.23-60.44,21.52-1.75.44-3.51.6-5.28.61-1.39.01-2.54-1.07-2.59-2.45l-2.37-60.67c-.06-1.54,1.23-2.77,2.77-2.64ZM300.03,288.82c3.76,7.38,13.58,5.85,15.91-1.68.29-.92,1.84-9.19,1.84-9.68v-19.54c0-1.54,1.35-2.72,2.88-2.53,17.13,2.17,49.36,8.37,45.48,29.45-1.7,9.23-7.55,12.54-12.54,18.18-11.96,13.5-24.86,26.53-36.65,39.55-13.02,14.37-18.43,25.48-40.8,27.71-18.66,1.86-32.72.15-50.28-3.49-10.99-2.28-48.68-8-54.15-17.56-4.49-7.84,3.67-15.08,10.08-18.5,7.84-4.18,19.15-6.78,27.58-10.57,28.68-12.9,37.24-27.16,55.19-51.1,6.67-8.89,19.38-13.89,30.53-14.06,1.37-.02,2.51,1.01,2.61,2.37.5,6.93-.03,26.85,2.31,31.43ZM159.43,364.74c10.25,9.82,48.45,17.35,63.58,20.3,23.22,4.53,56.58,8.69,78.2-2.5,16.02-8.29,27.9-29.33,39.64-42.32,16.31-18.06,63.65-50.94,40.24-78.68-4.85-5.75-13.28-12.4-20.18-15.68-13.27-6.3-26.37-8.65-40.77-9.84-1.33-.11-2.35-1.21-2.35-2.54v-16.69c0-1.48,1.25-2.65,2.72-2.55,31.19,2.13,58.81,8.12,85.53,24.9,9.68,6.08,15.13,8.54,20.85,18.85,9.37,16.89,7.72,30.49-1.78,46.63-.18.31-.43.58-.72.79-20.64,15.06-49.02,28.32-58.92,53.02-5.05,12.59-6.72,29.44-17.09,39.25-7.38,6.98-8.56,2.41-17.18,3.32-4.95.52-10.74,4.28-13.23,8.54-1.89,3.24-1.87,8.86-4.92,10.44-2.56,1.33-17.61,2.76-21.46,2.87-37.21,1.1-63.27-8.91-97.36-19.3-22.27-6.78-47.36-7.09-67.57-14.39-26.31-9.51-38.76-38.31-17.61-60.49,22.92-24.03,66.06-37.22,93.11-56.71,24.09-17.36,41.41-45.5,71.8-53.7,6.76-1.83,13.54-2.58,20.37-3.7,1.55-.25,2.96.94,2.96,2.52v15.08c0,1.3-.98,2.42-2.28,2.53-9.25.82-18.59,4.07-26.34,9-14.18,9.03-15.21,15.81-24.62,27.92-9.46,12.18-19.06,19.31-32.97,25.9-16.85,8-37.84,11.55-50.79,27.33-8.99,10.97-11.92,29.28-.87,39.87ZM502.2,360.7c0,10.18-18.53,29.99-26.24,36.56-11.39,9.71-17.6,12.5-27.3,26.44-16.7,24.01-13.83,54.04-34.04,78.03-40.94,48.59-129.99,49.86-186.47,33.14-23.87-7.07-45.2-19.1-67.88-25.61-51.71-14.83-99.95-5.93-130.37-59.16-2.48-4.34-4.41-7.13-5.81-12.93-.78-3.23-3.86-13.23-5.85-20.23-1.08-3.8-1.8-7.68-2.15-11.62l-1.61-17.94c-.07-.51.04-1.04.3-1.48.21-.35.56-.66.55-.68,1.57-1.21,2.69,5.14,4.85,11.73.95,2.89,2.17,5.67,3.67,8.31,1.58,2.79,3.64,6.32,4.75,7.87,5.89,8.18,11.43,14.76,19.83,20.98,38.75,28.71,71.22,26.24,114.94,37.46,31.6,8.1,61.51,22.47,93.94,27.72,53.47,8.66,130.9,1.17,156.75-53.85,8.14-17.33,6.82-34.72,13.63-51.68,11.26-28.06,25.9-29.97,48.06-45.42,2.65-1.85,6.06-6.5,9.91-9.3,3.43-2.5,8.52-5.61,13.05-7.36,1.68-.65,3.48.58,3.48,2.38v26.63ZM464.75,333.16c-15.83,9.67-34.33,19.12-45.79,35.25-16.57,23.32-10.97,42.86-20.67,66.39-17.61,42.72-84.22,50.55-124.54,46.79-40.72-3.8-75.16-23.28-113.7-32.29-25.66-6-49.76-4.5-74.5-15.14-40.89-17.6-81.4-62.24-47.46-106,32.32-41.67,88.87-60.3,130.88-89.33,16.88-11.67,31.42-28.74,48.47-41.23,15.66-11.47,35.61-14.98,54.91-18.09,6.88-1.11,13.41-3.26,20.49-2.58,1.27.12,2.48.44,3.68.78,1.18.33,1.96,1.45,1.86,2.67l-1.04,12.27c-.1,1.21-1.04,2.17-2.25,2.31-19.48,2.32-37.53,6.46-54.53,16.79-17.85,10.86-30.79,32.78-47.96,45.81-36.43,27.64-131.86,50.2-110.49,113.43,3.48,10.31,17.88,25.92,27.34,31.57,16.92,10.11,38.21,10.53,57,14.71,53.29,11.85,80.29,27.78,139.23,24.79,4.62-.23,19.48-3.74,21.76-3.42,1.68.24,4.1,4.78,7.91,5.65,8.18,1.88,14.66-.14,19.57-6.78,7.88-10.63.68-18.31,3.73-25.67,1-2.41,8.07-9.55,10.59-13.8,7.08-11.95,9.17-24.72,14.92-36.3,14.4-28.98,62.55-36.29,66.68-71.63,7.2-61.7-58.86-87.77-109.37-93.97-5.9-.72-18.2-.17-22.86-1.48,0,0-.02,0-.02,0-1.09-.31-1.77-1.41-1.69-2.54l.73-11.43c.09-1.38,1.26-2.45,2.65-2.39,38.01,1.6,80.05,4.7,115.65,18.16,64.55,24.4,98.2,94.32,28.83,136.69Z"/>
    </g>
    <g>
      <text class="cls-2" transform="translate(406.82 318.52)"><tspan class="cls-7" x="0" y="0">T</tspan><tspan x="77.34" y="0">opography of</tspan><tspan x="0" y="172.8">Human-Computer Interaction</tspan></text>
      <text class="cls-1" transform="translate(406.82 318.52)"><tspan class="cls-7" x="0" y="0">T</tspan><tspan x="77.34" y="0">opography of</tspan><tspan x="0" y="172.8">Human-Computer Interaction</tspan></text>
      <text class="cls-3" transform="translate(406.82 318.52)"><tspan class="cls-7" x="0" y="0">T</tspan><tspan x="77.34" y="0">opography of</tspan><tspan x="0" y="172.8">Human-Computer Interaction</tspan></text>
    </g>
  </g>
</svg>