<?xml version="1.0" encoding="UTF-8"?>
<svg id="Layer_2" data-name="Layer 2" xmlns="http://www.w3.org/2000/svg" viewBox="0 0 434.83 302.13">
  <defs>
    <style>
      .cls-1 {
        fill: none;
        stroke: #000;
        stroke-miterlimit: 10;
      }
    </style>
  </defs>
  <g id="Layer_1_copy" data-name="Layer 1 copy">
    <path class="cls-1" d="M405.31,49c5.29,4.65,4.04,12.45,7.07,18.31,1.97,3.72,5.55,6.51,8.19,9.78,2.58,3.05,4.6,6.85,6.38,10.69,3.19,7.8,2.64,17.1,2.37,25.29-.74,5.3-2.85,10.27-3.46,15.61-.38,3-.59,6.05-1.51,8.94-1.36,4.62-4.82,8.88-5.44,13.06-1.02,7.27,5.4,12.93,7.9,19.28,3.61,7.9,2.9,17,5.21,25.17,1.37,5.91,3.76,12.27,1.13,18.17-6.36,12.45-18.4,21.63-31.71,26.02-15.58,7.24-35.09.16-42.76,19.01-4.45,10.58-11.93,20.84-23.29,24.21-9.32,3.19-19.25-.08-28.75,1.94-9.1,1.09-16.95,8.02-25.62,9.4-4.39.48-9.14-.74-13.83-1.1-4.94-.33-9.69.01-14.48-.99-11.86-1.41-24.1-4.89-36.17-3.62-9.27.92-18.52,1.25-27.78,2.81-12.12,2.57-23.6,7.89-35.95,9.53-8.04.94-16.2,1.34-24.36,1-7.15-.53-14.12-3.14-20.83-5.4-12.05-4.21-24.88-9.01-32.55-19.92-13.38-15.03-8.29-17.75-15.02-31.71-6.42-10.05-24.59-13.81-21.43-28.57,2.7-9.67-1.33-18.84-3.72-28.27-1.87-7.5-4.76-14.32-8.73-21.14-5.51-9.98-13.91-18.86-16.41-30.06-1.17-7.9-1.82-15.91-2.47-23.87.15-8.16.01-16.42-3.71-23.93-4.14-8.42-4.05-15.87.14-24.43,2.14-5,4.52-10.32,8.73-13.82,5.16-4.12,11.83-5.54,18.04-7.38,9.72-3.22,19.37-6.24,29.61-6.83,6.6-.99,13.05-2.34,19.44-.04,10.97,4.9,22.74,7.73,33.43,13.29,6.09,3.11,12.42,4.8,18.42,8.47,2.93,1.76,5.75,3.79,8.69,5.53,10.06,6.15,17.37,6.63,25.74-1.98,3.22-2.87,7.11-5.4,9.6-9.04,2.77-3.73,4.23-8.45,7.65-11.68,5.81-4.97,13.54-7.12,19.61-11.83,6.49-4.35,11.6-10.48,18.29-14.24,15.24-9.55,19.7-11.12,37.85-8.8,7.96.14,15.79,5.66,23.68,4.99,3.57-.44,6.75-2.31,10.07-3.61,4.64-1.93,10.13-2.31,15.51-3.25,4.77-.87,9.57-1.72,14.43-1.78,10.01.53,20.73-4.66,30.06.84,5.21,2.68,11.36,2.97,16.43,5.8,6.05,4.32,13.31,8.7,17.17,14.99,7.06,17.34,4.44,13.77,19.04,25.04"/>
    <path class="cls-1" d="M343.58,135.34c-6.29,3.97-14.46,5.26-21.83,4.34-8.61-1.21-15.63-8.31-22.82-13.3-7.82-5.09-16.97-10.69-26.3-8.28-5.7,1.78-10.5,5.46-15.92,8.14-10,4.36-19.99,9.76-29.78,13.92-5.42,2.01-8.03,7.22-7.73,12.8.08,5.94-.94,12.35.42,17.92,1.52,7.03,7.01,12.41,14.79,11.38,6.87-.68,13.63-2.41,20.61-2.72,10.76-1.03,19.16,2.6,25.69,10.99,8.62,9.54,12.9,22.89,11.42,35.62-1.89,10.35-9.04,26.43-20.67,27.9-8.14.84-16.09-2.03-24.4-1.57-6.62.33-13.02-1.17-18.84-4.3-6.94-3.29-14.41-6.73-19.31-12.95-3.32-4.07-6.51-9.06-6.15-14.46-.29-6.25,8.36-11.69,6.44-16.76-1.71-2.97-5.5-2.88-8.77-2.62-4.64.47-9.9,2.37-11.65,7.06-1.43,3.6-.81,8.63-1.86,12.91-1.76,7.66-7.58,13.57-13.23,18.74-7.8,7.06-18.04,9.85-27.58,13.78-4.04,1.83-7.12,4.11-10.91,5.91-4.2,2.28-11.45,2.45-14.83.07-.88-.98-.26-2.28-.65-3.04-.45-.96-3.7-1.37-4.99-1.89-3.38-.83-7-2.29-10.74-3.52-4.85-1.66-9.41-2.99-12.15-6.68-2.18-2.86-3.16-6.97-4.63-10.73-1.66-4.26-3.58-8.24-5.48-12.53-3.28-7.25-6.43-14.79-8.02-22.63-1.79-9.78-3.86-19.88-5.49-29.55-.85-5.55-2.3-10.96-5.13-15.88-3.72-6.71-10.53-10.34-15.15-16.22-9.68-12.64-15.83-25.26-3.5-38.73,4.64-4.96,11.16-8.1,15.83-13.14,3.12-3.93,1.46-9.05,5.11-12.12,9.28-5.82,21.04-2.34,31.2-1.35,13.21,1.06,14.87,4.37,24.25,12.12,4.88,3.37,11.08,4.96,16.85,5.86,9.4.9,19.78-2.12,27.87,4.21,3.94,2.66,7.53,6.87,12.08,9.32,5.54,3.03,18.04,6.4,23.95,4.17,5.13-2.65,3.6-10.94,4.19-15.95.16-13.31,6.76-20.31,14.23-30.36,4.85-7.37,13.37-12.86,22.29-11.54,4.55.99,7.6,6.3,12.45,6.89,6.31.96,13.3-3.07,19.46.08,2.63,1.36,3.1,4.3,2.3,6.97-.28,1.67-2.97,8.21.71,7.03,3.71-1.64,5.79-4.75,9.12-7.81,2.18-2.05,4.25-4.34,6.13-6.72,5.17-7.16,12.93-14.51,22.44-12.42,6.43.94,11.36,5.52,16.59,8.9,2.93,1.86,6.12,3.29,9.24,4.82,4.65,2.26,8.39,5.97,12.61,8.69,2.49,1.64,5.14,3.16,7.24,5.28,4.6,4.88,6.31,13.2,5.76,19.48-.69,4.32-2.91,8.13-4.09,12.32-.9,2.98-1.2,6.15-2.05,9.15-1.55,5.69-5.53,10.53-9.2,15.4-2.13,2.77-4.38,5.56-7.29,7.53"/>
    <path class="cls-1" d="M366.89,153.91c6.44-3.87,15.41-6.22,21.95-1.71,6.79,4.76,12.36,11.59,18.9,16.78,10.17,8.13,13.18,15.98,13.28,28.8,1.08,13.83-8.28,27.47-21.77,31.57-10.5,2.78-39.27,7.32-46.53-1.7-3.76-4.6-3.17-11.79-2.51-17.49.73-5.16.89-10.56,1.42-15.79.65-5.94,2.94-11.77,3.57-17.81.64-8.81,3.79-17.72,11.54-22.56"/>
    <path class="cls-1" d="M353.98,133.88c.37-5.02,10.76-10.84,14.82-6.69,3.11,3.48-1.17,12.47-5.74,13.24-3.81.77-8.86-2.51-9.08-6.41"/>
    <path class="cls-1" d="M424.14,185.81c-2.26-7.85-7.23-14.53-12.37-20.78-3.65-5.09-9.67-9.74-9.77-16.37v-.16c-.03-2.4.49-4.81.85-7.19.97-6.03.55-12.07,2.92-17.75,3.19-6.88,5.48-14.18,3.42-21.8-1.65-7.66-4.29-15.23-6.49-22.58-1.69-6.93-6.89-10.88-12.18-15.49-2.46-2.45-4.63-5.19-6.75-7.95-4.15-5.62-8.78-11.19-13.96-15.88-4.12-3.68-8.75-6.46-12.69-10.2-5.96-6.09-11.33-11.23-20.21-12.22-15.72-2.69-25.45-5.91-40.62,1.44-6,2.44-12.06,5.46-18.7,5.88-5.81.59-11-2.54-16.55-3.6-5.77-1.11-12.3.03-18.55.38-7.55.23-15.07,2.57-20.95,7.43-4.24,3.28-8.64,6.04-11.38,9.91-2.85,3.72-3.85,8.57-6.6,12.34-4.54,6.1-11.1,11.02-18.34,13.42-4.17,1.27-9.06,1.7-11.84,3.6-6.51,5.25-6.11,10.59-16.7,9.78-4.27-.18-8.53-1.93-12.6-3.1-4.46-1.48-9.13-2.34-13.53-3.99-6.73-2.78-11.88-8.55-18.07-12.34-4.73-3.22-9.91-5.46-15.32-7.16-10.28-3.77-20.09-6.29-30.96-5.53-8.03-.26-16.15-.35-23.61,2.97-13.1,5.14-21.45,5.48-21.82,21.87-.46,4.48-1.43,9-1.47,13.29-.1,4.56.66,9.06.54,13.63-.58,10.54-.36,20.69,2.8,31.04,1.34,5.16,1.92,11.03,5.47,15.21,7.74,7.6,19.16,7.66,20.41,22,.56,11.42,2.19,21.7,7.14,32.28,4.59,8.72,8.25,17.72,9.95,27.44,2.51,8.25,7.14,16.22,10.78,24.18,3.48,6.75,8.96,12.17,14.22,17.58,4.41,4.52,8.06,10.24,13.73,13.36,4.41,2.22,9.29.98,13.95.42,4.43-.53,8.97.51,13.29,1.66,8.89,3.35,13.09,1.94,21.71.9,13.13,2.14,15.22-1.25,24.46-9.57,5.5-4.83,10.01-10.03,17.38-5.85,3.51,1.47,7.5.99,11.51,1.58,4.13.5,8.04,2.24,12.2,2.58,7.13.75,14.84-2.38,21.97-3.93,7.11-1.65,13.89-.12,21.2.87,6.45,1.21,12.97,1.36,19.47,1.23,5.69.02,11.3.39,16.52-1.74,2.09-.81,4.3-2.16,6.41-2.46,2.59-.43,5.01.37,8.03-.27,7.75-2.09,15.06-6.4,21.36-10.84,3.68-1.93,6.87-3.64,10.32-6.14,21.96-12.22,15.24-8.68,39.45-11.94,8.29-1.63,17.24-3.45,24.62-7.88,15.58-9.61,21.98-26.03,15.98-43.55ZM312.23,160.48c-1,3.16-2.4,6.39-5.14,8.07-5.21,3.2-12.88,1.3-17.93-1.91-3.6-2.2-7.15-4.25-11.55-4.91-3.52-.51-7.1-.7-10.65-.98-6.04-.81-16.11,1.38-20.36-3.25l-.08-.1c-2.75-3.83.86-9.76,2.67-13.66,2.57-5.49,6.8-9.75,12.11-12.39,3.74-1.95,7.17-4.34,10.97-6.07,12.62-5.12,26.78,2.66,34.71,12.43,7.25,8.3,9.28,11.9,5.25,22.76Z"/>
    <path class="cls-1" d="M180.11,161.3c.81,2.66-.61,6.16-.35,9.3.11,3.2,2.31,6.22,1.84,9.43-.77,3.73-5.26,7.21-4.74,11.69.66,7.22,2.32,14.79,1.02,21.99-1.61,12.3-9.75,24.99-21.53,29.67-13.08,4.33-26.61,3.32-40.09,2.95-14.81-1.71-27.04-18.26-32.88-30.96-3.26-6.79-5.42-14.02-6.52-21.52-.92-6.48-2.42-12.99-3.82-19.4-2.01-12.38-4.96-20.84-13.51-30.58-7.07-8.13-13.94-16.55-12.98-27.94.58-11.8,8.12-19.63,17.09-26.38,1.54-1.24,3.17-2.48,4.94-3.3,10.62-4.93,34.7,12.39,43.27,19.18,3.41,2.56,7.08,4.82,9.82,8.12,2.75,3.18,4.68,7.25,7.58,10.56,2.43,2.85,5.52,5.18,7.89,8.07,2.7,2.95,4.3,8.12,7.78,9.76,3.32,1.44,7.34-.08,10.9.27,7.24.36,10.78,5.74,14.98,10.55,2.63,3.25,7.74,4.39,9.3,8.42"/>
    <path class="cls-1" d="M317.71,135.48c-5.14-1.19-9.53-4.26-13.96-6.99-7.27-4.22-14.63-9.99-22.44-13.74-7.05-3.27-13.73,1.58-19.82,4.74-6.45,3.07-13.55,5.12-20.65,6.56-8.27,1.93-17.97,1.84-23.52-5.72-4.27-4.95-5.44-11.08-5-17.32.26-5.07-.63-10.11-.44-15.18.68-9.6,6.35-19.56,15.55-23.44,9.01-3.9,19.72-4.83,28.48.2,3.45,1.84,6.41,4.23,9.01,7.04,2.96,3.27,6.73,7.11,11.11,6.87,4.69-.11,9.14-3.79,12.61-6.93,13.13-13.5,16.9-17.72,36.44-12.24,18.21,4.33,23.82,5.72,27.04,25.62,2.69,11.17,3.29,23.52-3.17,33.64-6.57,10.11-18.2,20.04-31.06,16.95"/>
    <path class="cls-1" d="M292.38,218.6c2.64,8.75-3.61,16.52-10.02,21.76-2.21,1.94-4.52,3.83-7.16,5.13-7.06,3.52-15.51,1.84-23.16,1.36-16.78-.57-33.3-9.82-34.07-28.08.1-7.15,4.41-13.39,8.34-19.24,4.27-6.77,10.75-10.99,18.35-13.72,8.47-3.47,18.74-5.04,27.12-.95,6.73,3.32,10.4,11.14,13.46,17.86,2.18,5.24,5.51,10.46,7.11,15.7"/>
    <path class="cls-1" d="M358.55,186.04c1.6-6.44,5.21-12.04,9.24-17.25,7.14-9.31,15.99-12.19,25.95-5.55,8.23,5.36,17.69,11.23,21.99,20.15,3.19,7.54,3.55,16.38,1.71,24.29-3.33,12.17-13.8,20.89-26.59,21.83-13.52,1.64-25.6,1.47-32.34-12.47-3.42-7.22-2.37-15.33-1.45-22.98.32-2.64.79-5.27,1.45-7.85"/>
    <path class="cls-1" d="M164.4,171.46c2.49,7.44,2,15.45,4.17,23.15,2.84,9.88,6.27,16.64.04,26.31-2.95,4.75-7.17,7.99-11.99,11.29-4.3,3.01-8.89,5.89-14.13,6.8-4.43.75-8.96.76-13.44,1.15-5.79.36-11.66.94-17.12-.98-9.33-3.08-15.81-11.1-21.05-19.04-3.71-5.57-7.15-11.27-9.1-17.74-3.81-13.41-3.37-27.72-8.02-40.94-2.82-8.39-8.92-14.49-15.04-20.6-7.57-7.14-12.69-17.16-10.47-27.74,1.23-7.33,5.6-13.38,11.32-17.8,4.07-3.27,8.66-6.11,13.46-6.44,7.84-.26,15.39,3.7,21.62,8.15,7.05,5.67,13.21,12.57,19.06,19.47,5.14,6.65,8.72,14.1,15.41,19.25,10.49,9.08,30.55,22.76,35.22,35.53"/>
    <path class="cls-1" d="M328.69,128.08c-6.65,1.22-13.64,2.48-20.26.28-3.14-1.16-6.05-2.91-8.97-4.56-4.46-2.55-8.92-5.2-12.56-8.8-3.28-3.03-5.92-7.46-9.92-9.49-4.56-2.29-8.96,1.38-12.6,3.89-5.26,3.71-11.26,6.71-17.23,8.39-3.4.92-7.13,1.35-10.54.44-6.75-1.74-11.18-7.84-13.39-14.2-1.98-7.11-5.45-14.37-4.93-21.9.9-10.48,11.01-15.26,20.41-16.33,7.12-1.1,13.6,2.1,19.26,6.8,9.59,7.06,13.91,25.53,25.48,8.49,10.22-13.68,18.89-26.24,37.82-18.59,3.11,1.19,5.97,2.91,8.95,4.34,4.44,2.09,9.5,3.68,12.43,7.86,3.05,4.33,3.9,9.88,4.94,15.05,3.15,14.9-2.44,34.38-18.74,38.3"/>
    <path class="cls-1" d="M362.04,202.66c.61-7.29,1.9-14.66,5.3-20.96,4.21-7.26,10.27-15.82,19.48-16.22,8.06-.58,23.47,9.08,27.48,16.18,7.93,14.83,4.32,36.04-11.69,43.81-8.83,4.22-21.69,4.66-29.88-.59-6.69-5.09-11.29-13.46-10.72-22.04"/>
    <path class="cls-1" d="M259.2,187.85c8.53.62,14.31,7.9,19.15,14.27,3.29,4.01,7.85,6.71,11.44,10.45,6.82,6.99,9.18,17.11-.38,22.45-2.9,1.73-6.16,2.81-9.31,4-4.94,1.85-9.62,3.48-14.5,3.84-5.12.21-10.26.4-15.38.71-6.94.55-12.55-2.93-17.28-8.27-2.9-3.2-5.85-7.41-6.18-11.7-.4-4.47,2.04-8.58,4.12-13.19,1.96-4.5,3.29-9.33,6.56-12.86,4.75-4.86,14.97-10.27,21.58-9.73"/>
    <path class="cls-1" d="M161.99,191.5c-.25,6.12-3.58,11.61-5.12,17.37-1.48,5.76-2.27,12.18-6.85,16.43-6.41,6.37-16.45,8.74-25.34,9.66-7.51.71-13.77-3.14-19.59-8.08-4.7-3.88-8.44-8.64-12.1-13.67-3.45-4.82-6.83-9.99-8.02-15.86-1.37-5.72-.48-11.59-1.14-17.4-.48-5.09-1.95-10-3.17-14.95-1.86-8.97-3.23-16.35-11.82-20.67-4.54-2.49-9.28-4.96-12.67-8.96-8.84-10.25-9.68-26.28.3-36.15,6-6.19,14.82-11.55,23.58-8.36,6.87,2.38,13.34,6.73,17.95,12.39,4.28,5.62,8.29,11.49,11.73,17.66,1.65,3.03,3.03,6.2,4.9,9.1,5.78,8.7,15.26,14.18,24.11,19.37,8.52,5.27,15.53,13.05,20.08,21.92,2.69,6.24,3.5,13.32,3.19,20"/>
    <path class="cls-1" d="M374.38,178.24c7.44-8.26,18.86-11.22,28.65-5.58,9.35,4.31,13.81,9.86,15.42,20.17,4.77,20.02-9.58,34.96-29.57,33.69-9.25-.39-17.42-3.69-20.72-13.02-4.22-10.6-1.7-26.71,6.09-35.13"/>
    <path class="cls-1" d="M279.94,103.19c-3.21-9.98,1.41-24.95,9.32-32.16,12.14-10.68,28.35-9.74,31.94,8.07,1.04,7.17.71,14.44,2.29,21.54.85,4.93,1.97,10.23-.13,14.98-4.13,9.05-14.7,8.64-22.65,5.06-8.3-3.44-17.54-8.62-20.71-17.33"/>
    <path class="cls-1" d="M250.75,110.92c-10.52,4.08-19.96-6.11-22.55-15.63-4.5-14.75-4.75-23.92,13.38-24.88,12.54.03,23.19,12.86,26.67,24.17,1.72,6.64-3.54,10.31-9.39,12.86-2.61,1.25-5.27,2.52-7.93,3.42"/>
    <path class="cls-1" d="M289.8,216.87c4.88,1.53,9.85,9.25,6.35,13.92-1.81,2.18-5.78,2.92-9.62,3.24-3.34.36-8.45.55-10.38-1.8-2.4-3.06-1.16-7.69.4-10.89,2.27-4.71,8.48-5.97,13.09-4.51"/>
    <path class="cls-1" d="M155.64,184.89c-.2,5.83-2.9,11-6.07,16.17-2.98,4.85-6.43,10.16-11.41,12.69-13.37,6.17-31.26,1.96-40.4-9.71-5.19-6.08-6.61-14.19-6.09-21.99.21-5.48-.43-11.17-.74-16.53-.28-3.47-.49-6.55.21-9.64,1.22-5.34,4.18-12-2.48-14.96-2.79-1.43-6.26-1.87-9.33-2.65-3.73-.87-7.29-2.24-10.78-3.84-4.9-2.35-9.96-5.02-13.02-9.25-4.23-5.67-5.16-13.59-1.4-19.79,7.05-11.65,22.75-15.97,33.57-6.67,4.68,3.59,8.04,8.65,10.86,13.58,2.1,3.75,4.05,7.71,4.79,11.96.47,2.63.36,5.37.4,8-.6,12.18,10.3,14.16,19.36,18.21,7.75,3.85,16.51,5.83,23.14,11.59,6.43,5.58,9.7,14.26,9.37,22.66"/>
    <path class="cls-1" d="M377.51,181.66c6.19-6.42,15.51-9.52,23.61-5.56,8.85,3.45,15.48,7.17,18.34,16.74,4.33,11.35,2.49,24.46-9.93,29.24-10.77,4.2-24.04,3.65-33.6-3.03-1.84-1.28-3.45-2.86-4.57-4.79-2.11-3.53-2.19-7.89-1.66-12.31.76-7.09,2.63-14.98,7.68-20.15"/>
    <path class="cls-1" d="M279.77,84.08c.94-4.4,3.03-8,6.7-10.39,6.36-3.87,14.59-7.79,22.02-4.64,8.22,3.36,8.85,13.01,10.36,20.59,1.08,6.63,3.51,13.54.96,20.06-2.05,4.84-6.98,8.68-12.09,9.12-5.74.43-10.98-2.69-16.09-4.97-13.41-6.25-14.92-16.08-11.9-29.57"/>
    <path class="cls-1" d="M251.22,76.98c6.46,3.1,14.3,13.94,12.61,20.96-1.57,4.97-7.92,8.18-12.87,9.31-5.85,1.31-11.45-2.18-14.96-7.08-4.02-5.66-5.3-13.05-4.95-19.85,1.08-7.6,14.8-6.27,20-3.42"/>
    <path class="cls-1" d="M378.31,187.78c2.97-4.77,8.3-8.53,13.87-8.91,5.4-.42,10.47,2.06,15.58,4.11,4.83,1.97,9.9,4.33,12.72,8.74,2.88,4.36,4.27,9.8,4.73,15.01,1.21,9.61-5.99,14.44-14.63,15.54-7.27.81-15.66,2.7-22.06-1.91-5.18-3.85-11.13-8.25-12.67-14.48-1.01-5.89-.6-12.69,2.36-17.93"/>
    <path class="cls-1" d="M278.78,98.75c-3.19-12.19,5.22-22.62,16.74-26.13,16.2-4.65,21.26,10.25,22.96,23.39,1.92,12.66-9.41,21.33-21.19,17.44-6.73-2.54-15.93-7.68-18.45-14.55"/>
    <path class="cls-1" d="M115.53,162.68c7.2-3.53,17.44,2.54,22.78,7.24,8.77,8.3,6.1,17.05-2.68,24.04-4.01,3.05-9.59,2.92-14.55,3.06-4.15.03-8.73.51-12.36-1.89-9.93-7.06-2.48-27.45,6.65-32.38"/>
    <path class="cls-1" d="M91.84,112.76c.66,5.86-2.88,12.09-8.29,14.47-4.09,1.87-9.55.43-14.08-.7-11.35-2.42-17.42-11.93-8.86-21.52,4.16-4.37,10.56-6.9,16.56-5.8,6.74,1.3,13.71,6.6,14.65,13.38"/>
    <path class="cls-1" d="M239.57,95.77c-6.32-9.46,3.03-18.83,12.93-13.77,4.68,2.42,6.82,8.76,4.75,13.54-3.21,7.13-13.68,6.95-17.58.39"/>
    <path class="cls-1" d="M310.01,105.83c-8.39,7.9-20.1,3-26.62-4.87-7.87-8.2-1.55-18.74,6.89-23.52,7.19-4.27,18.97-5.07,22.48,4.15,3.11,7.68,3.71,18.01-2.62,24.12"/>
    <path class="cls-1" d="M389.76,196.33c4.45-12.83,21.62-10.16,29.41-2.05,9.93,10.43-1.04,26.66-13.96,24.95-4.57-1.01-8.99-3.46-12.7-6.23-4.56-3.71-4.39-10.93-2.81-16.5"/>
    <path class="cls-1" d="M283.01,95.34c-2.8-7.8,3.37-18.09,11.7-19.33,7.92-1.21,17.77,8.08,16.13,16.29-1.4,8.96-10.29,15.2-18.53,11.54-3.83-1.57-7.82-4.51-9.23-8.34"/>
    <path class="cls-1" d="M407.14,201.15c1.41-.98,3.76-1.65,5.2-.39,1.38,1.35,1.96,4.81.18,5.83-2.57,1.32-8.62-2.59-5.51-5.33"/>
    <path class="cls-1" d="M285.82,95.53c-2.36-4.22-1.4-11.01,1.28-15.06,4.05-6.1,11.72-5.24,15.61.82,4.79,6.1,2.25,16.51-5.5,18.53-3.99,1.05-9.19-.44-11.3-4.14"/>
    <path class="cls-1" d="M287.58,92.26c-3.31-4.11-1.6-11.75,3.71-13.36,2.65-.9,6.01-.31,7.58,2.14,4.16,6.76-3.91,18.86-11.19,11.35"/>
    <polyline class="cls-1" points="387.61 175.03 387.71 174.93 388.01 174.93 387.91 175.03 387.61 175.03"/>
  </g>
</svg>